# xmcd
#
# Track frame offsets: 
#        150
#        10750
#        20552
#        36210
#        47652
#        64220
#        77365
#        94342
#        107390
#        118915
#        132055
#        143242
#        160475
#        169770
#        185597
#        206775
#        220587
#        236485
#        250052
#        261952
#        290022
#
# Disc length: 4097 seconds
#
# Revision: 0
# Processed by: cddbd v1.5.2PL0 Copyright (c) Steve Scherf et al.
# Submitted via: ExactAudioCopyFreeDBPlugin 1.0
#
DISCID=2c0fff15
DTITLE=录音师-黄启光 - 半新旧-将军令
DYEAR=1991
DGENRE=New Age
TTITLE0=绣荷包
TTITLE1=看秧歌
TTITLE2=十月忙
TTITLE3=逛菜园
TTITLE4=妹妹不把歌儿怪
TTITLE5=想亲亲
TTITLE6=送情郎
TTITLE7=挂红灯
TTITLE8=樱桃熟了
TTITLE9=五哥放羊
TTITLE10=姐妹俩
TTITLE11=脚夫歌
TTITLE12=闹元宵
TTITLE13=将军令I 
TTITLE14=昭君怨
TTITLE15=龙飞凤舞
TTITLE16=妆台秋思
TTITLE17=满江红
TTITLE18=万事如意
TTITLE19=鸟语春雷
TTITLE20=将军令II 
EXTD=
EXTT0=
EXTT1=
EXTT2=
EXTT3=
EXTT4=
EXTT5=
EXTT6=
EXTT7=
EXTT8=
EXTT9=
EXTT10=
EXTT11=
EXTT12=
EXTT13=
EXTT14=
EXTT15=
EXTT16=
EXTT17=
EXTT18=
EXTT19=
EXTT20=
PLAYORDER=
